<?xml version="1.0" encoding="UTF-8"?>
<svg xmlns="http://www.w3.org/2000/svg" xmlns:xlink="http://www.w3.org/1999/xlink" width="15px" height="15px" viewBox="0 0 15 15" version="1.1">
<g id="surface1">
<path style=" stroke:none;fill-rule:nonzero;fill:rgb(0%,0%,51.372549%);fill-opacity:1;" d="M 12.203125 5.660156 L 12.203125 5.648438 C 12.203125 3.050781 10.097656 0.945312 7.5 0.945312 C 4.902344 0.945312 2.796875 3.050781 2.796875 5.648438 L 2.796875 5.660156 C 0.886719 7.089844 0.351562 9.722656 1.554688 11.785156 C 2.757812 13.847656 5.3125 14.679688 7.5 13.722656 C 9.683594 14.679688 12.242188 13.847656 13.441406 11.785156 C 14.644531 9.722656 14.113281 7.089844 12.203125 5.660156 Z M 7.5 12.667969 C 6.515625 12.097656 5.839844 11.109375 5.664062 9.980469 C 6.835938 10.480469 8.160156 10.480469 9.332031 9.980469 C 9.160156 11.109375 8.484375 12.097656 7.5 12.667969 Z M 9.347656 8.925781 C 8.203125 9.578125 6.800781 9.578125 5.652344 8.925781 C 5.808594 7.765625 6.488281 6.746094 7.5 6.160156 C 8.511719 6.746094 9.191406 7.769531 9.347656 8.925781 Z M 4.820312 8.289062 C 4.246094 7.703125 3.878906 6.949219 3.773438 6.136719 C 4.582031 5.675781 5.535156 5.535156 6.445312 5.746094 C 5.640625 6.390625 5.066406 7.285156 4.820312 8.285156 Z M 8.554688 5.746094 C 9.464844 5.535156 10.417969 5.675781 11.230469 6.136719 C 11.121094 6.949219 10.753906 7.703125 10.179688 8.285156 C 9.929688 7.285156 9.359375 6.390625 8.554688 5.742188 Z M 7.496094 1.886719 C 9.355469 1.890625 10.929688 3.246094 11.214844 5.082031 C 10.023438 4.578125 8.679688 4.585938 7.496094 5.105469 C 6.316406 4.585938 4.96875 4.578125 3.78125 5.082031 C 4.0625 3.246094 5.640625 1.886719 7.5 1.886719 Z M 5.617188 13.179688 C 4.097656 13.183594 2.730469 12.273438 2.144531 10.875 C 1.558594 9.476562 1.871094 7.859375 2.933594 6.78125 C 3.195312 7.832031 3.808594 8.757812 4.675781 9.410156 L 4.675781 9.417969 C 4.675781 10.847656 5.324219 12.195312 6.4375 13.085938 C 6.167969 13.148438 5.894531 13.175781 5.617188 13.175781 Z M 9.378906 13.179688 C 9.101562 13.179688 8.824219 13.148438 8.550781 13.085938 C 9.667969 12.195312 10.316406 10.847656 10.316406 9.417969 L 10.316406 9.410156 C 11.179688 8.757812 11.796875 7.832031 12.054688 6.78125 C 13.121094 7.859375 13.433594 9.476562 12.847656 10.875 C 12.261719 12.273438 10.890625 13.183594 9.375 13.179688 Z M 9.378906 13.179688 "/>
<path style=" stroke:none;fill-rule:nonzero;fill:rgb(0%,0%,51.372549%);fill-opacity:1;" d="M 8.855469 7.941406 C 8.855469 7.453125 8.261719 7.058594 7.53125 7.058594 C 6.800781 7.058594 6.207031 7.453125 6.207031 7.941406 C 6.207031 8.429688 6.800781 8.824219 7.53125 8.824219 C 8.261719 8.824219 8.855469 8.429688 8.855469 7.941406 Z M 8.855469 7.941406 "/>
</g>
</svg>
