<svg xmlns="http://www.w3.org/2000/svg" width="17" height="15" viewBox="0 0 17 15">
  <g id="Group_13675" data-name="Group 13675" transform="translate(-41 -85)">
    <rect id="Rectangle_4959" data-name="Rectangle 4959" width="17" height="15" transform="translate(41 85)" opacity="0"/>
    <g id="Group_13676" data-name="Group 13676" transform="translate(42.036 85.072)">
      <path id="Path_32" data-name="Path 32" d="M78.795,135.341v-.01a5.331,5.331,0,0,0-10.663,0v.01a5.325,5.325,0,0,0,5.331,9.138,5.325,5.325,0,0,0,5.331-9.138Zm-5.331,7.944a4.271,4.271,0,0,1-2.079-3.044,5.328,5.328,0,0,0,4.157,0A4.27,4.27,0,0,1,73.464,143.285Zm2.093-4.241a4.237,4.237,0,0,1-4.185,0,4.27,4.27,0,0,1,2.093-3.135A4.27,4.27,0,0,1,75.556,139.044Zm-5.13-.723a4.253,4.253,0,0,1-1.187-2.436,4.21,4.21,0,0,1,3.029-.446A5.333,5.333,0,0,0,70.426,138.32Zm4.234-2.882a4.21,4.21,0,0,1,3.029.446A4.253,4.253,0,0,1,76.5,138.32,5.333,5.333,0,0,0,74.66,135.438Zm-1.2-4.372a4.268,4.268,0,0,1,4.211,3.621,5.311,5.311,0,0,0-4.211.026,5.311,5.311,0,0,0-4.211-.026A4.268,4.268,0,0,1,73.464,131.066Zm-2.133,12.8a4.262,4.262,0,0,1-3.038-7.254,5.337,5.337,0,0,0,1.972,2.979v.01a5.32,5.32,0,0,0,2,4.158A4.239,4.239,0,0,1,71.331,143.861Zm4.265,0a4.239,4.239,0,0,1-.937-.107,5.32,5.32,0,0,0,2-4.158v-.01a5.337,5.337,0,0,0,1.972-2.979,4.262,4.262,0,0,1-3.038,7.254Z" transform="translate(-66 -130)"/>
      <ellipse id="Ellipse_1" data-name="Ellipse 1" cx="1.5" cy="1" rx="1.5" ry="1" transform="translate(6 6.928)"/>
    </g>
  </g>
</svg>
