<?xml version="1.0" encoding="UTF-8"?>
<svg xmlns="http://www.w3.org/2000/svg" xmlns:xlink="http://www.w3.org/1999/xlink" width="15px" height="15px" viewBox="0 0 15 15" version="1.1">
<g id="surface1">
<path style=" stroke:none;fill-rule:nonzero;fill:rgb(0%,0%,51.372549%);fill-opacity:1;" d="M 11.535156 10.648438 C 11.464844 10.601562 11.390625 10.554688 11.316406 10.507812 C 11.238281 10.460938 11.144531 10.417969 11.058594 10.375 C 11.183594 10.3125 11.304688 10.238281 11.417969 10.15625 C 11.882812 9.820312 12.140625 9.269531 12.097656 8.695312 C 12.066406 8.144531 11.753906 7.648438 11.269531 7.386719 L 11.152344 7.324219 C 10.78125 7.140625 10.375 7.046875 9.960938 7.046875 L 9.894531 7.046875 C 9.910156 7.035156 9.929688 7.019531 9.945312 7.003906 C 10.167969 6.800781 10.28125 6.503906 10.257812 6.203125 C 10.226562 5.890625 10.058594 5.609375 9.796875 5.441406 L 9.761719 5.421875 C 10.03125 5.285156 10.277344 5.105469 10.484375 4.882812 C 10.65625 4.695312 10.742188 4.441406 10.71875 4.183594 C 10.695312 3.929688 10.566406 3.691406 10.363281 3.535156 C 10.328125 3.503906 10.289062 3.476562 10.246094 3.445312 C 9.933594 3.226562 9.578125 3.082031 9.203125 3.019531 C 9.210938 3.003906 9.222656 2.988281 9.230469 2.972656 C 9.40625 2.601562 9.378906 2.164062 9.15625 1.816406 L 9.089844 1.726562 C 8.84375 1.386719 8.453125 1.179688 8.03125 1.167969 L 7.1875 1.167969 C 6.9375 1.167969 6.699219 1.265625 6.523438 1.441406 L 6.472656 1.488281 C 6.09375 1.984375 6.019531 2.65625 6.285156 3.222656 C 5.925781 3.425781 5.695312 3.800781 5.671875 4.210938 C 5.660156 4.40625 5.691406 4.605469 5.769531 4.785156 L 5.390625 4.785156 C 5.007812 4.78125 4.632812 4.863281 4.285156 5.015625 L 4.175781 5.066406 C 3.714844 5.28125 3.402344 5.730469 3.371094 6.238281 C 3.339844 6.765625 3.605469 7.265625 4.058594 7.539062 C 4.378906 7.742188 4.738281 7.871094 5.117188 7.921875 C 4.910156 8.113281 4.785156 8.375 4.757812 8.652344 C 4.726562 8.96875 4.832031 9.28125 5.046875 9.515625 L 5.078125 9.550781 C 5.152344 9.628906 5.234375 9.699219 5.316406 9.769531 C 4.890625 9.792969 4.46875 9.894531 4.078125 10.066406 L 3.933594 10.132812 C 3.351562 10.410156 2.960938 10.980469 2.921875 11.625 C 2.882812 12.296875 3.214844 12.933594 3.789062 13.28125 C 4.359375 13.644531 5.019531 13.835938 5.699219 13.828125 L 8.398438 13.828125 C 9.628906 13.84375 10.820312 13.382812 11.722656 12.550781 C 11.992188 12.296875 12.128906 11.9375 12.09375 11.574219 C 12.058594 11.195312 11.855469 10.855469 11.535156 10.648438 Z M 10.734375 8.128906 L 10.828125 8.179688 C 11.039062 8.296875 11.175781 8.515625 11.183594 8.753906 C 11.203125 9.023438 11.082031 9.285156 10.859375 9.441406 C 10.5625 9.652344 10.203125 9.765625 9.839844 9.761719 L 7.734375 9.761719 C 6.976562 9.769531 6.246094 9.460938 5.71875 8.914062 C 5.671875 8.867188 5.652344 8.800781 5.660156 8.734375 C 5.664062 8.664062 5.699219 8.601562 5.757812 8.558594 C 5.804688 8.523438 5.851562 8.488281 5.902344 8.453125 C 6.40625 8.121094 6.996094 7.949219 7.597656 7.957031 L 9.957031 7.957031 C 10.226562 7.953125 10.492188 8.011719 10.734375 8.128906 Z M 7.144531 2.101562 L 7.179688 2.070312 L 8.023438 2.070312 C 8.160156 2.089844 8.285156 2.167969 8.359375 2.28125 L 8.402344 2.335938 C 8.425781 2.414062 8.425781 2.5 8.402344 2.574219 C 8.273438 2.824219 8.109375 2.976562 7.976562 2.976562 L 7.230469 2.976562 C 7.1875 2.953125 7.152344 2.917969 7.128906 2.878906 C 7.015625 2.640625 7.011719 2.363281 7.121094 2.125 L 6.792969 1.808594 Z M 6.714844 4.59375 C 6.617188 4.515625 6.570312 4.394531 6.582031 4.273438 C 6.582031 4.167969 6.636719 4.066406 6.726562 4.007812 L 6.78125 3.980469 C 6.910156 3.914062 7.054688 3.878906 7.199219 3.878906 L 8.714844 3.878906 C 9.066406 3.875 9.414062 3.980469 9.703125 4.183594 L 9.789062 4.285156 C 9.488281 4.605469 9.066406 4.789062 8.625 4.785156 L 7.277344 4.785156 C 7.074219 4.785156 6.875 4.71875 6.714844 4.59375 Z M 4.28125 6.296875 C 4.292969 6.117188 4.402344 5.957031 4.570312 5.882812 L 4.660156 5.839844 C 4.886719 5.738281 5.132812 5.6875 5.378906 5.691406 L 7.574219 5.691406 C 8.128906 5.683594 8.671875 5.824219 9.148438 6.105469 L 9.285156 6.191406 C 9.316406 6.210938 9.339844 6.242188 9.34375 6.28125 C 9.34375 6.3125 9.328125 6.34375 9.300781 6.363281 C 8.792969 6.8125 8.128906 7.058594 7.449219 7.050781 L 5.496094 7.050781 C 5.152344 7.050781 4.816406 6.957031 4.527344 6.769531 C 4.363281 6.671875 4.269531 6.488281 4.28125 6.296875 Z M 11.066406 11.921875 C 10.328125 12.582031 9.371094 12.941406 8.382812 12.929688 L 5.679688 12.929688 C 5.171875 12.933594 4.671875 12.785156 4.246094 12.511719 C 3.964844 12.332031 3.800781 12.019531 3.820312 11.6875 C 3.839844 11.367188 4.03125 11.082031 4.324219 10.949219 L 4.453125 10.890625 C 4.789062 10.742188 5.152344 10.664062 5.523438 10.667969 L 8.558594 10.667969 C 9.355469 10.65625 10.140625 10.867188 10.828125 11.273438 C 10.894531 11.316406 10.957031 11.355469 11.019531 11.398438 C 11.113281 11.457031 11.171875 11.550781 11.179688 11.65625 C 11.1875 11.757812 11.144531 11.855469 11.066406 11.921875 Z M 11.066406 11.921875 "/>
</g>
</svg>
