<svg xmlns="http://www.w3.org/2000/svg" width="17" height="15" viewBox="0 0 17 15">
  <g id="Group_13700" data-name="Group 13700" transform="translate(-23 -348)">
    <g id="Group_13699" data-name="Group 13699" transform="translate(0 48)">
      <g id="Group_13682" data-name="Group 13682" transform="translate(-18 215)" opacity="0">
        <rect id="Rectangle_4959" data-name="Rectangle 4959" width="17" height="15" transform="translate(41 85)" opacity="0.39"/>
      </g>
    </g>
    <g id="stones" transform="translate(-236.714 90.323)">
      <path id="Path_1" data-name="Path 1" d="M272.789,268.745c-.08-.053-.164-.107-.251-.16s-.193-.1-.289-.15a3.206,3.206,0,0,0,.407-.246,1.865,1.865,0,0,0,.768-1.656,1.8,1.8,0,0,0-.939-1.486l-.131-.068a3.014,3.014,0,0,0-1.353-.314h-.073c.019-.017.041-.032.059-.05a1.107,1.107,0,0,0,.351-.908,1.154,1.154,0,0,0-.523-.864l-.036-.023a2.874,2.874,0,0,0,.816-.607,1.035,1.035,0,0,0,.265-.793,1.046,1.046,0,0,0-.4-.738c-.043-.033-.087-.065-.132-.1a2.92,2.92,0,0,0-1.185-.482c.01-.018.022-.035.032-.055a1.352,1.352,0,0,0-.082-1.31l-.077-.1a1.538,1.538,0,0,0-1.2-.635h-.956a1.088,1.088,0,0,0-.754.31l-.056.054,0,0a1.908,1.908,0,0,0-.214,1.965,1.371,1.371,0,0,0-.693,1.121,1.452,1.452,0,0,0,.108.65h-.428a3.055,3.055,0,0,0-1.254.262l-.121.056h0a1.576,1.576,0,0,0-.913,1.331,1.611,1.611,0,0,0,.777,1.473,3,3,0,0,0,1.2.435,1.3,1.3,0,0,0-.406.827,1.258,1.258,0,0,0,.327.977l.038.041c.084.088.175.169.267.249a3.934,3.934,0,0,0-1.4.336l-.164.076h0a2,2,0,0,0-1.149,1.69,2.056,2.056,0,0,0,.982,1.877,3.984,3.984,0,0,0,2.164.621h3.063A5.47,5.47,0,0,0,273,270.9a1.353,1.353,0,0,0,.422-1.107A1.412,1.412,0,0,0,272.789,268.745Zm-.91-2.854.108.056h0a.771.771,0,0,1,.4.652.863.863,0,0,1-.366.778,1.98,1.98,0,0,1-1.155.363H268.48a3.128,3.128,0,0,1-2.285-.959.258.258,0,0,1-.066-.205.28.28,0,0,1,.109-.2c.053-.039.108-.078.167-.118a3.4,3.4,0,0,1,1.919-.564H271A1.957,1.957,0,0,1,271.879,265.891Zm-4.069-6.832.043-.034h.956a.536.536,0,0,1,.378.238l.048.062a.417.417,0,0,1,0,.271c-.144.28-.329.454-.48.454h-.846a.315.315,0,0,1-.116-.111,1.014,1.014,0,0,1-.007-.855l-.372-.359Zm-.488,2.826a.422.422,0,0,1-.15-.365.373.373,0,0,1,.164-.3h0l.064-.034a1,1,0,0,1,.471-.111h1.72a1.935,1.935,0,0,1,1.122.342l.095.116a1.78,1.78,0,0,1-1.317.568h-1.531A1.064,1.064,0,0,1,267.322,261.885Zm-2.757,1.93a.556.556,0,0,1,.329-.473l.1-.047a1.991,1.991,0,0,1,.817-.168H268.3a3.415,3.415,0,0,1,1.781.468l.156.1a.134.134,0,0,1,.065.1.109.109,0,0,1-.046.093,3.1,3.1,0,0,1-2.1.778h-2.213a2.008,2.008,0,0,1-1.1-.316A.588.588,0,0,1,264.565,263.815Zm7.691,6.372a4.466,4.466,0,0,1-3.043,1.143H266.15a2.957,2.957,0,0,1-1.624-.475,1.027,1.027,0,0,1-.481-.934.979.979,0,0,1,.568-.834l.146-.068a2.924,2.924,0,0,1,1.213-.252h3.442a4.881,4.881,0,0,1,2.571.687c.076.047.149.093.22.141a.392.392,0,0,1,.18.293A.359.359,0,0,1,272.256,270.187Z"/>
    </g>
  </g>
</svg>
