<svg xmlns="http://www.w3.org/2000/svg" width="17" height="15" viewBox="0 0 17 15">
  <g id="Group_13567" data-name="Group 13567" transform="translate(-41 -85)">
    <rect id="Rectangle_4959" data-name="Rectangle 4959" width="17" height="15" transform="translate(41 85)" fill="#f0f3f4" opacity="0"/>
    <path id="Path_1242" data-name="Path 1242" d="M-238.405,76.095a.561.561,0,0,0-.433-.233,8.755,8.755,0,0,0-1.678.1,4.747,4.747,0,0,0,.148-.637A4.839,4.839,0,0,0-241,72.115a.562.562,0,0,0-.635-.251,7.307,7.307,0,0,0-1.169.452c-.013-.16-.025-.321-.054-.479a4.756,4.756,0,0,0-.8-1.906A5.955,5.955,0,0,0-245.9,68.07a.561.561,0,0,0-.5,0,5.952,5.952,0,0,0-2.236,1.862,4.7,4.7,0,0,0-.862,2.383,7.355,7.355,0,0,0-1.165-.45.562.562,0,0,0-.635.251,4.84,4.84,0,0,0-.634,3.211,4.763,4.763,0,0,0,.148.638,8.842,8.842,0,0,0-1.678-.1.561.561,0,0,0-.433.233.562.562,0,0,0-.083.485,6.235,6.235,0,0,0,3.305,3.8,5.954,5.954,0,0,0,2.462.528,6.248,6.248,0,0,0,2.06-.348,6.248,6.248,0,0,0,2.06.348,5.952,5.952,0,0,0,2.462-.528,6.235,6.235,0,0,0,3.305-3.8A.562.562,0,0,0-238.405,76.095Zm-9.312-5.517a4.744,4.744,0,0,1,1.568-1.372,4.744,4.744,0,0,1,1.568,1.372,3.628,3.628,0,0,1,.617,1.458,3.7,3.7,0,0,1,.045.955,6.728,6.728,0,0,0-1.374,1.342,6.735,6.735,0,0,0-.856,1.483,6.735,6.735,0,0,0-.856-1.483,6.73,6.73,0,0,0-1.374-1.342A3.626,3.626,0,0,1-247.718,70.578Zm-2.494,8.776a4.964,4.964,0,0,1-2.4-2.361,7.739,7.739,0,0,1,2.43.56,7.673,7.673,0,0,1,2.932,2.136A5,5,0,0,1-250.212,79.354Zm.459-2.838c-.237-.1-.482-.178-.728-.255a.486.486,0,0,0-.022-.084,3.623,3.623,0,0,1-.319-1.023,3.726,3.726,0,0,1,.285-2.07,5.9,5.9,0,0,1,2.64,1.928,5.963,5.963,0,0,1,1.182,3.6A8.721,8.721,0,0,0-249.753,76.516Zm4.168,2.1a5.963,5.963,0,0,1,1.182-3.6,5.9,5.9,0,0,1,2.64-1.928,3.726,3.726,0,0,1,.285,2.07,3.624,3.624,0,0,1-.319,1.023.489.489,0,0,0-.021.083c-.247.077-.492.157-.729.255A8.721,8.721,0,0,0-245.585,78.612Zm3.5.742a5,5,0,0,1-2.963.335,7.675,7.675,0,0,1,2.931-2.136,7.73,7.73,0,0,1,2.431-.56A4.964,4.964,0,0,1-242.088,79.354Z" transform="translate(295.65 18.042)" fill="#000083"/>
  </g>
</svg>
