<svg xmlns="http://www.w3.org/2000/svg" width="17" height="15" viewBox="0 0 17 15">
  <g id="Group_13569" data-name="Group 13569" transform="translate(-56 -275)">
    <rect id="Rectangle_4960" data-name="Rectangle 4960" width="17" height="15" transform="translate(56 275)" opacity="0"/>
    <g id="Group_13568" data-name="Group 13568" transform="translate(-21.376 -293.121)">
      <path id="Path_1245" data-name="Path 1245" d="M17.654,15.614A23.27,23.27,0,0,0,16.413,11.8l-.093-.218a3.793,3.793,0,0,0-3.1-2.253c-.066-.006-.129,0-.195-.007A3.789,3.789,0,0,0,12.9,5.586l-.125-.2a23.209,23.209,0,0,0-2.423-3.2A.562.562,0,0,0,9.935,2h0a.563.563,0,0,0-.418.186A23.22,23.22,0,0,0,7.1,5.389l-.124.2a3.789,3.789,0,0,0-.119,3.729c-.085,0-.171,0-.258.01a3.793,3.793,0,0,0-3.1,2.252L3.4,11.8a23.241,23.241,0,0,0-1.241,3.816.562.562,0,0,0,.477.685,23.139,23.139,0,0,0,2.9.181q.558,0,1.114-.026l.235-.012A3.788,3.788,0,0,0,9.906,14.59a3.788,3.788,0,0,0,3.025,1.852l.236.012q.556.026,1.113.026a23.13,23.13,0,0,0,2.9-.181.562.562,0,0,0,.477-.685ZM7.934,6.176l.118-.19A22.077,22.077,0,0,1,9.935,3.415a21.919,21.919,0,0,1,1.888,2.569l.119.191a2.667,2.667,0,0,1,.05,2.7,2.515,2.515,0,0,1-.66.768,3.354,3.354,0,0,0-.507.3,2.258,2.258,0,0,1-.884.18h0a2.264,2.264,0,0,1-1.114-.3c-.022-.014-.047-.024-.07-.038a2.48,2.48,0,0,1-.868-.911A2.671,2.671,0,0,1,7.934,6.176Zm1.122,7.639a2.669,2.669,0,0,1-2.24,1.5l-.224.011a22.234,22.234,0,0,1-3.186-.077,22.075,22.075,0,0,1,1.029-3.017l.089-.206a2.668,2.668,0,0,1,2.185-1.583,2.451,2.451,0,0,1,1.464.3c.023.014.047.026.071.039a2.252,2.252,0,0,1,.662.628A2.347,2.347,0,0,1,9.056,13.815Zm4.165,1.515L13,15.319a2.671,2.671,0,0,1-2.241-1.5,2.347,2.347,0,0,1,.151-2.4,2.241,2.241,0,0,1,.494-.508,3.451,3.451,0,0,0,.47-.274,2.433,2.433,0,0,1,.971-.2c.087,0,.174,0,.263.013a2.668,2.668,0,0,1,2.185,1.583l.089.206a22.282,22.282,0,0,1,1.029,3.017A22.144,22.144,0,0,1,13.222,15.33Z" transform="translate(75.97 566.381)"/>
      <path id="Path_1246" data-name="Path 1246" d="M15.58,13.125a.562.562,0,0,0,0-1.125h-.006a.562.562,0,0,0,.006,1.125Z" transform="translate(70.336 562.004)"/>
      <path id="Path_1247" data-name="Path 1247" d="M10.58,19h-.006a.565.565,0,1,0,.006,0Z" transform="translate(72.525 558.94)"/>
      <path id="Path_1248" data-name="Path 1248" d="M20.58,19h-.006a.565.565,0,1,0,.006,0Z" transform="translate(68.147 558.94)"/>
    </g>
  </g>
</svg>
