<svg xmlns="http://www.w3.org/2000/svg" width="12.857" height="15" viewBox="0 0 12.857 15">
  <g id="Group_8" data-name="Group 8" transform="translate(-4 -130)">
    <path id="Path_33" data-name="Path 33" d="M13.543,138.036h-.971v-1.361a3.223,3.223,0,0,0,.884-1.318h.455a1.339,1.339,0,1,0,0-2.679h-.316a3.21,3.21,0,0,0-6.332,0H6.946a1.339,1.339,0,1,0,0,2.679H7.4a3.223,3.223,0,0,0,.884,1.318v1.361H7.315A3.318,3.318,0,0,0,4,141.351v3.114a.536.536,0,0,0,.536.536H16.321a.536.536,0,0,0,.536-.536v-3.114A3.318,3.318,0,0,0,13.543,138.036Zm.636-4.018a.268.268,0,0,1-.268.268h-.268v-.536h.268A.268.268,0,0,1,14.179,134.018Zm-3.75-2.946a2.145,2.145,0,0,1,2.143,2.143v1.071a2.143,2.143,0,1,1-4.286,0v-1.071A2.145,2.145,0,0,1,10.429,131.071Zm-3.482,3.214a.268.268,0,1,1,0-.536h.268v.536Zm-1.875,9.643v-2.578a2.246,2.246,0,0,1,2.244-2.244H8.821a.536.536,0,0,0,.536-.536v-1.259a3.155,3.155,0,0,0,2.143,0v1.079a7.822,7.822,0,0,1-3.757,2.825.533.533,0,0,0-1.064.033v2.679Zm2.679-1.607a.537.537,0,0,0,.17-.028,8.921,8.921,0,0,0,4.381-3.186h1.242a2.221,2.221,0,0,1,1.188.348,14.319,14.319,0,0,1-1.485,1.971,14.318,14.318,0,0,1-2.979,2.5H7.75Zm4.364,1.607c.343-.269.675-.549.993-.845v.845Zm3.672,0H14.179v-1.952a15.337,15.337,0,0,0,1.306-1.728,2.22,2.22,0,0,1,.3,1.1Z" fill="#000083"/>
    <path id="Path_34" data-name="Path 34" d="M15.536,134.607a.536.536,0,0,0,.536-.536v-.536a.536.536,0,0,0-1.071,0v.536A.536.536,0,0,0,15.536,134.607Z" transform="translate(-5.107 -1.393)" fill="#000083"/>
  </g>
</svg>
