<svg xmlns="http://www.w3.org/2000/svg" width="17" height="15" viewBox="0 0 17 15">
  <g id="Group_13683" data-name="Group 13683" transform="translate(-23 -300)">
    <g id="Group_13682" data-name="Group 13682" transform="translate(-18 215)" opacity="0">
      <rect id="Rectangle_4959" data-name="Rectangle 4959" width="17" height="15" transform="translate(41 85)" opacity="0.39"/>
    </g>
    <g id="Group_13681" data-name="Group 13681" transform="translate(17913.725 -1092.88)">
      <path id="Path_22410" data-name="Path 22410" d="M100,107.52H88.629A4.637,4.637,0,0,0,84,112.149v5.538a.589.589,0,0,0,.594.594h11.39a4.637,4.637,0,0,0,4.629-4.629v-5.538a.615.615,0,0,0-.611-.594Zm-.157,6.132a3.892,3.892,0,0,1-3.878,3.878H84.751v-5.363a3.892,3.892,0,0,1,3.878-3.878H99.844Z" transform="translate(-17974.531 1287.48)"/>
      <path id="Path_22411" data-name="Path 22411" d="M296.887,208.715l3.092-1.939a.425.425,0,0,0,0-.716l-3.092-1.939a.427.427,0,0,0-.646.367v3.861a.421.421,0,0,0,.646.367Z" transform="translate(-18180.15 1193.954)"/>
    </g>
  </g>
</svg>
