<?xml version="1.0" encoding="UTF-8"?>
<svg xmlns="http://www.w3.org/2000/svg" xmlns:xlink="http://www.w3.org/1999/xlink" width="15px" height="15px" viewBox="0 0 15 15" version="1.1">
<g id="surface1">
<path style=" stroke:none;fill-rule:nonzero;fill:rgb(0%,0%,51.372549%);fill-opacity:1;" d="M 14.289062 2.753906 L 4.253906 2.753906 C 2 2.757812 0.175781 4.582031 0.171875 6.835938 L 0.171875 11.722656 C 0.171875 11.863281 0.226562 11.996094 0.324219 12.097656 C 0.421875 12.195312 0.554688 12.25 0.695312 12.246094 L 10.746094 12.246094 C 13 12.242188 14.824219 10.417969 14.828125 8.164062 L 14.828125 3.277344 C 14.820312 2.984375 14.582031 2.753906 14.289062 2.753906 Z M 14.148438 8.164062 C 14.144531 10.050781 12.617188 11.578125 10.730469 11.585938 L 0.832031 11.585938 L 0.832031 6.851562 C 0.839844 4.964844 2.367188 3.4375 4.253906 3.429688 L 14.152344 3.429688 Z M 14.148438 8.164062 "/>
<path style=" stroke:none;fill-rule:nonzero;fill:rgb(0%,0%,51.372549%);fill-opacity:1;" d="M 6.585938 9.519531 L 9.3125 7.808594 C 9.421875 7.738281 9.484375 7.621094 9.484375 7.492188 C 9.484375 7.363281 9.421875 7.246094 9.3125 7.175781 L 6.585938 5.464844 C 6.46875 5.398438 6.324219 5.394531 6.203125 5.460938 C 6.085938 5.527344 6.015625 5.65625 6.015625 5.789062 L 6.015625 9.195312 C 6.011719 9.332031 6.082031 9.460938 6.203125 9.53125 C 6.320312 9.597656 6.46875 9.59375 6.585938 9.519531 Z M 6.585938 9.519531 "/>
</g>
</svg>
