<svg xmlns="http://www.w3.org/2000/svg" xmlns:xlink="http://www.w3.org/1999/xlink" width="88.406" height="88.406" viewBox="0 0 88.406 88.406">
  <defs>
    <clipPath id="clip-path">
      <rect id="Rectangle_1" data-name="Rectangle 1" width="88.406" height="88.406" fill="none"/>
    </clipPath>
    <clipPath id="clip-path-2">
      <path id="Intersection_2" data-name="Intersection 2" d="M30.819,63.306A31.658,31.658,0,1,1,63.306,32.5v0A31.661,31.661,0,0,1,31.675,63.317C31.39,63.317,31.106,63.313,30.819,63.306Z" transform="translate(0)" fill="none"/>
    </clipPath>
  </defs>
  <g id="Group_5" data-name="Group 5" transform="translate(-35 -35.197)">
    <g id="Group_2" data-name="Group 2" transform="translate(35 35.197)">
      <g id="Group_1" data-name="Group 1" transform="translate(0)" clip-path="url(#clip-path)">
        <path id="Path_1" data-name="Path 1" d="M113.752,107.053a44.119,44.119,0,1,1-6.9-62.014,44.118,44.118,0,0,1,6.9,62.014" transform="translate(-35.133 -35.329)" fill="#000083"/>
      </g>
    </g>
    <path id="Path_2" data-name="Path 2" d="M148.526,117.917a31.658,31.658,0,1,1-30.809-32.488,31.659,31.659,0,0,1,30.809,32.488" transform="translate(-37.714 -37.714)" fill="#e6e6e6"/>
    <g id="Group_4" data-name="Group 4" transform="translate(47.506 47.703)">
      <g id="Group_3" data-name="Group 3" transform="translate(0 0)" clip-path="url(#clip-path-2)">
        <path id="Path_3" data-name="Path 3" d="M99.96,74.794c-5.587-.1-11.845.956-19.215,3.184-2.59.783-15.913,5.082-16.991,5.483-.581.216-.584.234-.584,2.181a8.693,8.693,0,0,0,.149,2.112c.23.228.88.042,8.2-2.339,13.958-4.541,17.965-5.521,24.778-6.063a34.882,34.882,0,0,1,20.1,4.381,8.131,8.131,0,0,0,2.183,1.052,6.047,6.047,0,0,0,.192-2.008c0-1.414-.084-1.971-.328-2.216a35.779,35.779,0,0,0-6.463-3.433A33.929,33.929,0,0,0,99.96,74.794Zm-.574,8.742a52.77,52.77,0,0,0-16.353,2.45c-2.95.857-18.494,5.8-19.385,6.167-.449.185-.478.325-.478,2.192a9.254,9.254,0,0,0,.141,2.135.5.5,0,0,0,.289.141c.081,0,3.829-1.2,8.328-2.671s9.568-3.056,11.267-3.524c6.941-1.914,12.528-2.7,17.577-2.461a32.528,32.528,0,0,1,14.576,3.894A19.1,19.1,0,0,0,118.6,93.3a6.424,6.424,0,0,0,.178-2V89.4l-.907-.622a38.327,38.327,0,0,0-11.878-4.757,26.413,26.413,0,0,0-6.6-.484Zm-.626,8.7a46.642,46.642,0,0,0-7.043.413c-2.981.559-7.86,1.729-10.652,2.553-2.869.846-17,5.434-17.47,5.67-.244.124-.334.648-.381,2.216-.06,2.047-.059,2.056.454,2.056.283,0,3.741-1.06,7.685-2.355C82.279,99.2,86.1,98.139,91.171,97.273c9.843-1.684,18.534-.284,25.949,4.18a3.246,3.246,0,0,0,1.439.6,5.556,5.556,0,0,0,.216-2.027c0-1.887,0-1.9-.694-2.419-2.443-1.85-8.312-4.223-12.3-4.974a46.132,46.132,0,0,0-7.017-.4Zm.626,8.554c-7.393-.014-12.4,1.069-27.163,5.866-3.983,1.294-7.627,2.474-8.1,2.621l-.853.268-.061,1.884a12.253,12.253,0,0,0,.054,2.183c.161.417.57.309,7.252-1.9,14.2-4.692,18.832-5.844,25.584-6.37a36.855,36.855,0,0,1,14.566,1.756,41.446,41.446,0,0,1,6.711,3.1,2.989,2.989,0,0,0,1.225.557,12.952,12.952,0,0,0,0-4.046,20.252,20.252,0,0,0-4.407-2.658,32.459,32.459,0,0,0-14.817-3.269Zm-.426,8.816c-7.2,0-12.624,1.218-28.359,6.378-8.145,2.671-12.885,3.954-17.552,4.749a57.389,57.389,0,0,1-13.315.215,34.76,34.76,0,0,1-11.323-4,16.638,16.638,0,0,0-2.29-1.155c-.154,0-.234.685-.234,1.99,0,2.326-.08,2.209,2.51,3.641a35.079,35.079,0,0,0,11.658,4.048,55.336,55.336,0,0,0,13.208-.3c5.51-.987,11.648-2.714,21.625-6.088a134.661,134.661,0,0,1,13.848-3.913c11.445-2.3,20.278-1.138,28.385,3.742a3.225,3.225,0,0,0,1.439.6,5.527,5.527,0,0,0,.216-2.022c0-2.187,0-2.179-2.084-3.346a37.361,37.361,0,0,0-12.51-4.313,51.2,51.2,0,0,0-5.221-.237Zm.426,8.865c-7.81-.021-12.716,1.019-26.595,5.629a161,161,0,0,1-17.6,5.036,34.046,34.046,0,0,1-7.935.873c-5.962.164-9.05-.263-13.647-1.885a42.732,42.732,0,0,1-6.715-3.206c-.321-.228-.681-.354-.8-.281a11.464,11.464,0,0,0-.051,4.07,17.575,17.575,0,0,0,4.065,2.416A37.234,37.234,0,0,0,40.9,134.4c.352.045,2.414.093,4.582.111,7.516.058,12.165-.98,28.973-6.467,12.954-4.229,17.031-5.074,24.606-5.1,4.112-.012,4.967.046,6.959.473a35.168,35.168,0,0,1,10.229,3.815,17.141,17.141,0,0,0,2.29,1.13c.148,0,.231-.719.231-2.021v-2.023l-.891-.645a40.773,40.773,0,0,0-7.205-3.475c-.878-.294-2.748-.8-4.155-1.125-2.359-.547-2.909-.593-7.137-.6Zm-.425,8.741c-7.4.016-12.16,1.07-27.377,6.059-14.023,4.6-18.75,5.6-26.312,5.609a24.663,24.663,0,0,1-6.617-.561,35.818,35.818,0,0,1-11.438-4.424c-1.352-.8-1.372-.772-1.287,1.839l.061,1.9,2.341,1.336a35.5,35.5,0,0,0,13.155,4.3h0a58.8,58.8,0,0,0,9.963-.2c5.776-.88,10.888-2.241,21.112-5.623,9.413-3.113,13.48-4.22,19.367-5.27a47.243,47.243,0,0,1,13.723,0,35.2,35.2,0,0,1,11.187,4.157c1.929,1.131,1.935,1.128,1.935-1.254v-2.026l-1.119-.714a36.581,36.581,0,0,0-11.9-4.642,27.908,27.908,0,0,0-6.794-.479Zm0,0" transform="translate(-40.662 -77.435)" fill="#dc0000"/>
        <path id="Path_4" data-name="Path 4" d="M26.173,99.5a.226.226,0,0,0-.13.018c-.341.211-.291,29.758.053,30.182a21.239,21.239,0,0,0,3.955,2.4,38.987,38.987,0,0,0,11.331,3.3,57.07,57.07,0,0,0,10.661-.315c2.044-.3,6.872-1.311,8.408-1.755l.638-.185V117.934c0-13.4-.038-15.212-.319-15.179-.176.021-1.805.381-3.622.8a46.242,46.242,0,0,1-11.482,1.4,31.768,31.768,0,0,1-12.1-1.945A42.643,42.643,0,0,1,26.842,99.8a1.608,1.608,0,0,0-.669-.3Zm2.155,2.181c.111.032.19.143.3.349a2.036,2.036,0,0,0,.459.61c.116.076.147.386.07.692-.152.609-.182.616-1.036.279-.323-.128-.586-.4-.586-.6a2.268,2.268,0,0,0-.114-.667c-.07-.181.1-.395.422-.544.235-.107.376-.153.486-.121Zm30.151,2.738a.763.763,0,0,1,.36.149c.356.222.42.411.312.918a5.35,5.35,0,0,1-.165.662c-.015.013-.293.087-.617.164-.485.117-.629.053-.817-.364s-.148-.594.3-1.082c.3-.32.452-.454.624-.448Zm-24.2.015c.166,0,.318.136.6.46a1.18,1.18,0,0,1,.4,1.019c-.157.549-.382.792-.566.607a1.212,1.212,0,0,0-.605-.179c-.661-.049-.794-1.381-.175-1.767a.71.71,0,0,1,.348-.139Zm18.082,1.128c.134-.023.256.068.482.252a.86.86,0,0,1,.335,1.036c-.088.443-.257.661-.513.661a2.4,2.4,0,0,0-.719.128c-.235.09-.338.006-.338-.276a1.03,1.03,0,0,0-.192-.609c-.118-.123.034-.422.384-.761.28-.27.426-.408.56-.43Zm-12,.338a1.079,1.079,0,0,1,.476.324,1,1,0,0,1,.378.977,1.115,1.115,0,0,1-.235.587c-.328.141-1.306-.117-1.309-.345a3.5,3.5,0,0,0-.116-.678.6.6,0,0,1,.345-.709.675.675,0,0,1,.461-.156Zm5.943.218c.124,0,.259.086.514.268.355.255.493.517.422.8a3.8,3.8,0,0,0-.106.671c0,.136-.326.244-.728.244-.628,0-.739-.081-.847-.622a1.011,1.011,0,0,1,.3-1.05c.206-.206.319-.31.443-.317Zm-15.556.441a1.225,1.225,0,0,1,.977.443,1.03,1.03,0,0,1,.323,1.208c-.111.43-.232.58-.336.413a.887.887,0,0,0-.68-.26c-.352,0-.52-.121-.522-.373a4.01,4.01,0,0,0-.124-.823c-.1-.364.081-.573.362-.608Zm-2.328,1.6c.119.018.174.1.174.236a1.288,1.288,0,0,0,.342.627.771.771,0,0,1,.16.888c-.172.485-.217.5-.874.225-.589-.243-.694-.395-.694-1.009,0-.462.122-.769.336-.852a1.193,1.193,0,0,1,.555-.115Zm26.9.153c.13-.024.249.06.464.234.573.464.473,1.73-.136,1.73h0a2.264,2.264,0,0,0-.674.111c-.177.068-.376-.124-.515-.5-.2-.53-.162-.672.324-1.157.265-.264.408-.4.538-.423Zm-18.074.217c.129.024.259.141.478.37a.988.988,0,0,1,.342,1.032c-.11.44-.252.531-.773.5-.712-.049-.7-.039-.887-.82a.676.676,0,0,1,.354-.882c.225-.148.356-.219.486-.2Zm12.018.489.48.469a1.226,1.226,0,0,1,.414,1.033c-.055.462-.193.579-.77.646-.611.071-.735,0-.932-.516s-.156-.668.291-1.115Zm-5.987.309c.134.017.272.135.528.374q.53.49.351.78a.715.715,0,0,0-.078.554c.07.184-.136.259-.672.243-.849-.024-.848-.024-1.024-.789a.758.758,0,0,1,.384-.906c.245-.181.377-.269.51-.255ZM58.4,110.8c.136-.024.277.059.54.23.445.292.5.431.325.765a.761.761,0,0,0-.09.62c.071.116,0,.249-.15.3-1.214.379-1.4.341-1.525-.3a1.154,1.154,0,0,1,.385-1.184c.246-.265.379-.4.515-.426Zm-24.213.07c.179-.019.329.12.661.471.516.548.542.647.281,1.149-.158.3-.345.492-.417.419a1.278,1.278,0,0,0-.618-.165c-.267-.018-.462-.153-.431-.3a1.22,1.22,0,0,0-.156-.663c-.168-.314-.11-.461.282-.718a1.018,1.018,0,0,1,.4-.193Zm18.169,1.248c.122-.013.243.072.467.246a.787.787,0,0,1,.319,1c-.122.526-.267.649-.816.691-.575.044-.684-.031-.784-.533a1.046,1.046,0,0,1,.348-1.054c.222-.224.343-.338.466-.352Zm-12.016.161c.129.015.258.139.5.382a1.083,1.083,0,0,1,.395,1.06c-.089.473-.215.559-.793.542s-.72-.128-.9-.686c-.182-.581-.144-.713.292-1.042.242-.182.372-.273.5-.257Zm6.067.171.449.467a1.087,1.087,0,0,1,.34,1.044c-.092.483-.221.578-.785.578-.54,0-.718-.116-.894-.585-.193-.512-.15-.644.335-1.045Zm-15.328.486c.218.012.409.168.663.512a1.222,1.222,0,0,1,.308,1.12c-.133.453-.217.485-.819.308-.549-.162-.693-.336-.793-.949-.138-.851-.167-.782.41-.959a.645.645,0,0,1,.23-.031Zm-2.7,1.613a.216.216,0,0,1,.224.239,1.3,1.3,0,0,0,.346.631.956.956,0,0,1,.207.921c-.14.558-.428.7-.659.33a.677.677,0,0,0-.523-.214c-.559,0-.723-1.437-.2-1.719a1.252,1.252,0,0,1,.6-.189Zm26.861.269a.746.746,0,0,1,.52.143c.43.231.494.387.39.939-.07.365-.136.673-.149.686s-.31.077-.663.144c-.54.1-.682.034-.9-.429-.231-.488-.2-.611.273-1.084a1.334,1.334,0,0,1,.529-.4Zm-18.01.106c.124.023.253.152.489.407a1.1,1.1,0,0,1,.359,1.15c-.075.338-.2.6-.278.584s-.4-.071-.706-.119a1.018,1.018,0,0,1-.315-1.789c.212-.172.329-.256.451-.233Zm6.007.689.47.5a1,1,0,0,1,.331,1.06c-.112.446-.268.561-.762.561a.735.735,0,0,1-.834-.558c-.178-.467-.13-.639.291-1.061Zm6.033.054c.121-.013.232.081.441.27a1.137,1.137,0,0,1,.367,1.016c-.054.529-.163.634-.719.676-.54.042-.695-.053-.874-.527-.186-.492-.143-.65.288-1.065.247-.237.377-.357.5-.37Zm9.114,1.753c.135-.034.262.021.459.143.356.221.42.408.312.916a5.379,5.379,0,0,1-.165.663c-.015.014-.294.087-.618.164-.5.122-.62.06-.8-.419s-.133-.644.306-1.084a1.324,1.324,0,0,1,.509-.383Zm-24.07.014c.165.027.311.165.559.452.407.474.457.665.275,1.065-.122.267-.279.478-.348.465-.662-.112-1.18-.382-1.134-.591a1.176,1.176,0,0,0-.151-.644c-.166-.311-.1-.435.327-.63a1.558,1.558,0,0,1,.3-.109.474.474,0,0,1,.175-.008Zm18.056,1.094c.126-.016.251.068.479.239.387.292.45.489.339,1.049-.093.468-.26.688-.519.688a2.336,2.336,0,0,0-.69.118c-.215.083-.349-.086-.445-.561a1.058,1.058,0,0,1,.351-1.166c.232-.231.359-.349.485-.366Zm-12.071.176c.132.018.264.145.516.4a1.107,1.107,0,0,1,.413,1.067c-.088.461-.222.55-.828.55-.571,0-.72-.086-.72-.413a.713.713,0,0,0-.213-.546c-.324-.2-.249-.39.316-.8.249-.181.382-.271.515-.253Zm6.012.408c.123-.006.257.084.508.267.287.208.476.507.42.662a2.336,2.336,0,0,0-.1.649c0,.274-.183.367-.729.367-.628,0-.743-.082-.847-.6a1.01,1.01,0,0,1,.307-1.029c.206-.205.318-.309.442-.315Zm-15.149.175c.087,0,.138.038.17.132a2.182,2.182,0,0,0,.5.641.845.845,0,0,1,.274.948h0c-.154.615-.157.615-1,.282-.324-.127-.587-.395-.587-.6a2.188,2.188,0,0,0-.11-.653c-.06-.157.1-.416.363-.579a1.014,1.014,0,0,1,.388-.174Zm-2.83,1.9c.179-.014.27.049.27.184a1.275,1.275,0,0,0,.339.649.841.841,0,0,1,.2.816c-.15.473-.159.475-.962.251-.407-.114-.559-.331-.658-.937-.071-.434-.072-.791,0-.793a4.516,4.516,0,0,0,.606-.131,1.079,1.079,0,0,1,.208-.039Zm27,.072a1.178,1.178,0,0,1,.4.206c.418.274.484.449.373,1s-.253.674-.771.731c-.493.053-.688-.042-.867-.423-.191-.407-.146-.587.263-1.063.292-.339.423-.472.6-.446Zm-18.1.115c.429,0,.972,1.025.835,1.578h0c-.075.3-.2.523-.272.506s-.389-.071-.7-.119c-1.049-.16-.925-1.965.135-1.966Zm12.016.709c.135-.016.272.078.537.27.325.236.489.518.416.711a4.036,4.036,0,0,0-.174.634c-.03.183-.323.338-.694.369-.508.041-.693-.061-.892-.5-.22-.483-.186-.615.277-1.079.26-.26.394-.39.529-.408Zm-5.967.23c.122.006.233.109.438.315a1.011,1.011,0,0,1,.307,1.04c-.1.517-.222.608-.761.59-.709-.024-.705-.018-.877-.768a.763.763,0,0,1,.391-.911c.247-.182.38-.272.5-.267Zm15.1,1.508c.133-.04.26.013.455.134.626.391.536,1.762-.118,1.795a1.786,1.786,0,0,0-.689.173c-.146.09-.328-.074-.455-.409-.273-.72-.294-.634.3-1.278a1.38,1.38,0,0,1,.5-.415Zm-24.1.016c.188,0,.321.13.576.455a1.942,1.942,0,0,1,.413.685c-.313.913-.443,1.114-.579.894a.885.885,0,0,0-.673-.25c-.371,0-.52-.117-.52-.409a2.408,2.408,0,0,0-.106-.693c-.061-.164.131-.395.453-.544a1.183,1.183,0,0,1,.436-.139Zm18.038,1.185c.172-.03.359.06.62.257.5.379.287,1.62-.276,1.62a2.292,2.292,0,0,0-.692.119c-.478.183-.611-.948-.182-1.539.2-.278.358-.427.53-.457Zm-11.956.267a1.067,1.067,0,0,1,.471.318,1.09,1.09,0,0,1,.379,1.082c-.052.351-.155.623-.229.6s-.4-.072-.722-.121-.588-.2-.59-.341a3.51,3.51,0,0,0-.116-.678.6.6,0,0,1,.345-.707.677.677,0,0,1,.46-.157Zm5.949.239c.133-.011.266.076.513.255.281.2.465.5.41.655a2.433,2.433,0,0,0-.1.671c0,.3-.166.387-.707.387-.575,0-.749-.109-.927-.582-.189-.5-.148-.646.3-1.042.248-.221.383-.333.516-.344Zm-15.337.391a1.427,1.427,0,0,1,1.117,1.525c-.072.286-.192.507-.268.489s-.4-.072-.721-.122c-.371-.055-.588-.22-.59-.446a4,4,0,0,0-.126-.818c-.092-.343-.008-.5.334-.6a.6.6,0,0,1,.254-.023Zm-2.918,1.754c.665.118,1.392,1.127,1.12,1.726-.249.548-.272.551-1,.151a1.085,1.085,0,0,1-.563-.672,2.886,2.886,0,0,0-.171-.724c-.1-.244,0-.383.34-.473a.665.665,0,0,1,.278-.008Zm27.264.032c.13-.024.249.061.464.234.573.465.473,1.73-.136,1.73a2.263,2.263,0,0,0-.674.111c-.177.068-.376-.122-.515-.494-.2-.531-.162-.673.324-1.157.265-.264.408-.4.538-.424Zm-18.107.209c.125.023.255.15.487.4a1.019,1.019,0,0,1,.324,1.168c-.09.352-.236.569-.322.483a1.255,1.255,0,0,0-.625-.191c-.324-.024-.52-.227-.636-.657-.136-.508-.08-.687.3-.976.223-.169.345-.252.471-.229Zm12.014.772c.134-.016.271.061.512.22a.8.8,0,0,1,.425.955c-.076.516-.207.632-.787.7-.6.07-.726,0-.912-.5s-.145-.647.269-1.036c.228-.215.359-.325.492-.34Zm-5.952.018c.126.008.241.117.456.333a.98.98,0,0,1,.319,1.029c-.109.492-.242.587-.867.6-.425.014-.739-.084-.741-.225a3.812,3.812,0,0,0-.107-.671c-.071-.287.068-.55.423-.8.256-.184.391-.274.516-.266Zm-9.033,1.691c.172.029.339.164.611.436.5.5.532.62.3,1.041-.216.386-.39.453-.906.35-.351-.07-.614-.245-.583-.39a1.28,1.28,0,0,0-.167-.682c-.187-.348-.139-.457.286-.651a1.234,1.234,0,0,1,.285-.1.5.5,0,0,1,.178,0Zm24.121,0a.655.655,0,0,1,.482.117c.343.185.438.378.348.714a3.852,3.852,0,0,0-.127.7c0,.133-.3.285-.66.339-.551.081-.691.008-.862-.441s-.114-.628.312-1.053a1.313,1.313,0,0,1,.507-.379Zm-5.951,1.034c.119-.011.232.093.455.3a.957.957,0,0,1,.321,1.051c-.109.544-.227.635-.834.653s-.724-.063-.819-.544a1.085,1.085,0,0,1,.384-1.071c.248-.252.374-.38.492-.39Zm-12.074.242c.136.018.266.139.505.379a1.083,1.083,0,0,1,.391,1.058c-.091.479-.211.557-.832.539-.54-.016-.726-.116-.726-.392a.647.647,0,0,0-.213-.5c-.346-.214-.248-.461.334-.842.262-.172.405-.258.541-.239Zm5.955.434c.129,0,.271.077.529.246.322.21.5.483.429.663a2.046,2.046,0,0,0-.117.608h0q0,.3-.723.3c-.6,0-.746-.093-.864-.56a.855.855,0,0,1,.294-.965c.206-.192.322-.288.451-.294Zm0,0" transform="translate(-40.605 -95.992)" fill="#000083"/>
      </g>
    </g>
    <path id="Path_6" data-name="Path 6" d="M134.02,185.58a12.965,12.965,0,0,1-1.921-.764,13.241,13.241,0,0,0-1.241-.563c-.526,0-3.426-2.7-4.451-4.151-.311-.439-.756-1.038-.987-1.333a8.24,8.24,0,0,1-1.392-2.721,2.03,2.03,0,0,1-.087-1.323c.219-.912.043-1.027-1.009-.654-.324.115-.773.254-1,.309-.461.114-7.458.258-7.458.155,0-.2.6-.564.926-.568.771-.011,1.459-.138,1.516-.285.075-.2-.151-.331-.558-.333-.364,0-.548-.181-.328-.32a3.841,3.841,0,0,1,1.029-.092,3.9,3.9,0,0,0,1.257-.156,4.3,4.3,0,0,1,2.276,0c.357.15.425.145,1.051-.062a22.708,22.708,0,0,0,3.89-1.9,5.077,5.077,0,0,1,.84-.5c.631-.2,1.076-.871,1.47-2.222.124-.424.383-1.2.578-1.725a4.279,4.279,0,0,0,.352-1.991,3.539,3.539,0,0,0-.163-1.378c-.117-.246-.133-.395-.058-.535a14.919,14.919,0,0,0,.42-1.608,12.428,12.428,0,0,1,.486-1.743c.6-1.174,1.825-2.02,4.391-3.043a4.884,4.884,0,0,0,2.1-1.377,1.681,1.681,0,0,0,.232-1.121,2.2,2.2,0,0,1,.258-1.259c.3-.571.32-.84.076-1.2-1.227-1.825-1.241-1.861-1.013-2.56a10.325,10.325,0,0,0,.255-1.79c.081-1.159.12-1.333.393-1.78a3.377,3.377,0,0,1,2.089-1.467c1.411-.381,1.946-.259,2.832.647a5.236,5.236,0,0,1,.8,1.014,7.719,7.719,0,0,1,.377,2.4,1.5,1.5,0,0,0,.155.721,1.529,1.529,0,0,1,.154.743,2.46,2.46,0,0,1-.68,1.667,1.9,1.9,0,0,0-.141,1.952c.185.361.206.49.115.691a.871.871,0,0,0,.2,1.063,5.306,5.306,0,0,0,2.129,1.4,9.3,9.3,0,0,1,4.393,3.061,12.16,12.16,0,0,1,.993,3.871,10.2,10.2,0,0,0,.712,4.436,9.733,9.733,0,0,0,1.349,2.828,1.675,1.675,0,0,0,.635.344,8.414,8.414,0,0,1,1.347.682,11.467,11.467,0,0,0,1.47.761,5.448,5.448,0,0,1,.813.377c.22.145.442.159,1.516.1a4.205,4.205,0,0,1,1.706.088,4.762,4.762,0,0,0,1.352.157c.985,0,1.229.053,1.229.263,0,.088-.157.149-.436.169-.331.023-.446.078-.473.225-.057.3.163.369,1.121.371.85,0,.889.014,1.1.3l.218.3-2.642.073a17.064,17.064,0,0,1-5.451-.367c-.951-.327-1.187-.235-.874.341.15.276.183.591.184,1.735,0,1.367-.006,1.407-.289,1.816a4.989,4.989,0,0,1-.865.866,29.2,29.2,0,0,0-3.585,3.446,10.2,10.2,0,0,1-3.131,2.679c-2.009.934-3.044,1.065-8.312,1.051-3.072-.011-3.554-.032-4.236-.208Zm12.527-9.548a8.618,8.618,0,0,0,1.388-1.33c.906-1.02,1.07-1.157,1.646-1.377.374-.142.639-.305.639-.392s-.208-.256-.463-.388a4,4,0,0,1-.675-.439,13.5,13.5,0,0,1-1.426-2.782,16.281,16.281,0,0,1-.881-3.442c0-.3-.475-.867-.724-.867-.282,0-.321.124-.407,1.27a7.7,7.7,0,0,1-.341,1.817c-.548,1.6-.638,3.925-.188,4.807a2.778,2.778,0,0,1,.22,1.458c0,1.07.1,1.517.384,1.734.231.174.382.162.829-.068Zm-14.274-.634a6.25,6.25,0,0,0,.2-1.339,3.78,3.78,0,0,1,.367-1.684,1.222,1.222,0,0,0,.208-.9c-.041-.187-.116-.826-.167-1.42a13.591,13.591,0,0,0-.569-3.19.27.27,0,0,0-.265-.049c-.316.121-.588.665-1.01,2.012a8.86,8.86,0,0,1-1.854,3.531,1.864,1.864,0,0,1-.513.371c-.057,0-.1.091-.1.2s.157.3.413.465a3.637,3.637,0,0,1,.694.591c1.132,1.333,2.3,1.964,2.6,1.406Zm0,0" transform="translate(-59.682 -81.194)" fill="#000083"/>
    <path id="Path_7" data-name="Path 7" d="M135.822,89.955a32.617,32.617,0,1,0,2.419,46.065l-1-.893a31.281,31.281,0,1,1-2.318-44.178,31.267,31.267,0,0,1,2.318,44.178l.994.9a32.629,32.629,0,0,0-2.419-46.065Zm0,0" transform="translate(-34.833 -34.832)" fill="#fff"/>
    <path id="Path_8" data-name="Path 8" d="M81.606,288.286l1.484,2.094-5.227,3.705-1.376-1.941A2.339,2.339,0,0,1,76,290.8a1.475,1.475,0,0,1,.749-1.177,1.768,1.768,0,0,1,.724-.315,1.106,1.106,0,0,1,.751.133l.008,0a1.363,1.363,0,0,1-.139-1.121,1.835,1.835,0,0,1,.72-.9,1.443,1.443,0,0,1,1.554-.217,3.32,3.32,0,0,1,1.235,1.082Zm-1.642,2.269,1.124-.8-.123-.174a.024.024,0,0,0,0-.018l-.019-.028-.123-.173q-.064-.09-.134-.175a1.526,1.526,0,0,0-.466-.378.52.52,0,0,0-.568.081.545.545,0,0,0-.291.559,1.637,1.637,0,0,0,.253.591l.093.132.089.125.039.055.04.056.09.143ZM77.94,291.99l1.012-.718-.108-.152a.031.031,0,0,0,0-.019.319.319,0,0,1-.019-.027,1.583,1.583,0,0,0-.431-.4.608.608,0,0,0-.828.566,1.482,1.482,0,0,0,.222.519l.05.069c.013.019.027.04.044.062Zm0,0" transform="translate(-30.793 -189.145)" fill="#fff"/>
    <path id="Path_9" data-name="Path 9" d="M65.714,260.176l.947,2.089,1.2-.057.731,1.609-6.852.4-.751-1.657,4.838-4.844.733,1.617Zm-.975.937-1.577,1.461.007.016,2.142-.216-.572-1.261Zm0,0" transform="translate(-19.513 -167.108)" fill="#fff"/>
    <path id="Path_10" data-name="Path 10" d="M53.2,243.522l4.831-1.276-.511-1.931,1.364-.36.936,3.54-6.194,1.637Zm0,0" transform="translate(-13.67 -153.767)" fill="#fff"/>
    <path id="Path_11" data-name="Path 11" d="M53.446,214.252l.211,2.285,1.149.338.163,1.76-6.606-1.865-.167-1.81,6.158-2.992.163,1.768Zm-1.227.566-1.969.864,0,.016,2.094.5-.127-1.379Zm0,0" transform="translate(-9.909 -132.749)" fill="#fff"/>
    <path id="Path_12" data-name="Path 12" d="M53.856,186.872l-6.36-.777.2-1.653,4.258-2.554,0-.015L48.07,181.4l.2-1.654,6.36.777-.2,1.653-4.266,2.553,0,.015,3.9.476Zm0,0" transform="translate(-9.384 -108.551)" fill="#fff"/>
    <path id="Path_13" data-name="Path 13" d="M56.928,151.853l1.9.631a1.651,1.651,0,0,0-.7.449,1.945,1.945,0,0,0-.427.718,1.6,1.6,0,0,0,.1,1.341,1.8,1.8,0,0,0,1.046.84,1.724,1.724,0,0,0,1.336-.057,1.689,1.689,0,0,0,.865-1.037,1.862,1.862,0,0,0,.081-.806,1.951,1.951,0,0,0-.272-.772l1.887.629c0,.161-.006.312-.016.451s-.016.278-.029.412a3.075,3.075,0,0,1-.137.625,3.57,3.57,0,0,1-.633,1.151,3.753,3.753,0,0,1-1.014.836,3.007,3.007,0,0,1-1.278.4,3.568,3.568,0,0,1-1.344-.188,3.448,3.448,0,0,1-1.126-.626,3.273,3.273,0,0,1-.8-1.01A3.425,3.425,0,0,1,56,154.581a3.278,3.278,0,0,1,.124-1.311c0-.011.007-.021.011-.032s.01-.029.013-.04a3.417,3.417,0,0,1,.325-.707,4.4,4.4,0,0,1,.462-.634Zm0,0" transform="translate(-15.758 -87.605)" fill="#fff"/>
    <path id="Path_14" data-name="Path 14" d="M66.084,130.476l-.917,1.754.948.5.87-1.664,1.25.654-.87,1.664.979.512.917-1.755,1.25.654-1.689,3.231-5.677-2.968,1.689-3.231Zm0,0" transform="translate(-21.136 -71.061)" fill="#fff"/>
    <path id="Path_15" data-name="Path 15" d="M80.158,115.568l-5.092-3.888L76.5,109.8a3.2,3.2,0,0,1,2.135-1.256,3.179,3.179,0,0,1,3.62,2.764,3.2,3.2,0,0,1-.663,2.38ZM77.2,111.212l2.849,2.177.227-.3a2,2,0,0,0,.453-1.279,1.632,1.632,0,0,0-.752-1.27,1.707,1.707,0,0,0-1.363-.4,1.872,1.872,0,0,0-1.17.763Zm0,0" transform="translate(-30.088 -55.053)" fill="#fff"/>
    <path id="Path_16" data-name="Path 16" d="M109.738,76.616l1.951-1.4L110.244,73.2l1.351-.973,3.745,5.2-1.351.973-1.535-2.13L110.5,77.679l1.535,2.13-1.351.974-3.745-5.2,1.352-.973Zm0,0" transform="translate(-54.025 -27.812)" fill="#fff"/>
    <path id="Path_17" data-name="Path 17" d="M138.659,62.212l-1.786.855.463.965,1.693-.81.609,1.273-1.694.81.477,1,1.786-.854.608,1.272-3.288,1.573-2.765-5.778,3.288-1.574Zm0,0" transform="translate(-74.918 -19.332)" fill="#fff"/>
    <path id="Path_18" data-name="Path 18" d="M166.023,58.135l-2.21.616-.127,1.191-1.7.475.653-6.833,1.751-.488,4.046,5.524-1.711.477Zm-.776-1.107-1.2-1.782-.017.006-.116,2.149,1.335-.372Zm0,0" transform="translate(-95.361 -13.441)" fill="#fff"/>
    <path id="Path_19" data-name="Path 19" d="M190.433,48.908l.526,4.968,1.986-.21.149,1.4-3.642.386-.674-6.372Zm0,0" transform="translate(-115.482 -10.297)" fill="#fff"/>
    <path id="Path_20" data-name="Path 20" d="M211.4,48.029l-.03,6.407-1.666-.008.03-6.407Zm0,0" transform="translate(-131.197 -9.631)" fill="#fff"/>
    <path id="Path_21" data-name="Path 21" d="M222.258,54.453l1.037-6.322,1.644.269,2.376,4.359.017,0,.634-3.866,1.643.269-1.037,6.322-1.643-.269-2.375-4.367-.017,0-.635,3.873Zm0,0" transform="translate(-140.625 -9.713)" fill="#fff"/>
    <path id="Path_22" data-name="Path 22" d="M259.247,61.342l3.062,1.243a8.121,8.121,0,0,1-.608,1.183,3.05,3.05,0,0,1-.953.925,2.744,2.744,0,0,1-1.428.447,3.7,3.7,0,0,1-1.49-.283,3.386,3.386,0,0,1-1.935-1.785,3.274,3.274,0,0,1,.038-2.626,3.358,3.358,0,0,1,1.832-1.961,3.454,3.454,0,0,1,2.686.071,3.25,3.25,0,0,1,1.429,1.066,2.927,2.927,0,0,1,.574,1.681l-1.71.014a1.655,1.655,0,0,0-.214-.876,1.349,1.349,0,0,0-.69-.582,1.4,1.4,0,0,0-1.328.085,2.381,2.381,0,0,0-.9,1,.468.468,0,0,0-.043.084l-.032.079-.01.023c0,.006,0,.014-.01.024a2.379,2.379,0,0,0-.088,1.413,1.43,1.43,0,0,0,.92,1.033,1.482,1.482,0,0,0,.955.085,1.114,1.114,0,0,0,.707-.612l-1.257-.519.492-1.212Zm0,0" transform="translate(-165.693 -17.31)" fill="#fff"/>
    <path id="Path_23" data-name="Path 23" d="M297.891,81.676,296.3,80.438l-.658.845,1.442,1.122-.867,1.113L294.777,82.4l-1.545,1.985-1.314-1.024,3.936-5.056,2.9,2.261Zm0,0" transform="translate(-192.938 -32.371)" fill="#fff"/>
    <path id="Path_24" data-name="Path 24" d="M317.9,99.156a3.71,3.71,0,0,1,.935,2.464A2.964,2.964,0,0,1,317.78,104a3.4,3.4,0,0,1-2.566.935,3.767,3.767,0,0,1-3.37-3.8A3.4,3.4,0,0,1,313.08,98.7a2.97,2.97,0,0,1,2.49-.766A3.681,3.681,0,0,1,317.9,99.16Zm-1.208,1.07a1.811,1.811,0,0,0-1.245-.61,1.581,1.581,0,0,0-1.227.383,1.881,1.881,0,0,0-.674,1.3,1.735,1.735,0,0,0,.444,1.321,1.711,1.711,0,0,0,1.253.592,1.868,1.868,0,0,0,1.378-.507,1.575,1.575,0,0,0,.522-1.178,1.751,1.751,0,0,0-.457-1.3Zm0,0" transform="translate(-207.898 -47.086)" fill="#fff"/>
    <path id="Path_25" data-name="Path 25" d="M331.955,127.167l-1.273,3.055-1.033-1.8,1.353-2.59-.008-.017-2.137,1.229-.83-1.445,5.555-3.193,1.241,2.159a2.623,2.623,0,0,1,.372,1.619,1.733,1.733,0,0,1-.98,1.3,2,2,0,0,1-1.205.271,1.529,1.529,0,0,1-1.062-.586Zm1.352-2.678-1.385.8.081.14a.422.422,0,0,0,.034.078l.039.066a1.654,1.654,0,0,0,.485.505.639.639,0,0,0,.7-.041.622.622,0,0,0,.381-.582,1.6,1.6,0,0,0-.185-.678c-.011-.019-.023-.042-.038-.066l-.042-.074Zm0,0" transform="translate(-220.054 -65.493)" fill="#fff"/>
    <path id="Path_26" data-name="Path 26" d="M348.9,165.366l.557,2.34,2.406-.572.385,1.62-6.233,1.482-.385-1.621,2.555-.607-.557-2.34-2.555.608-.385-1.621,6.233-1.482.385,1.62Zm0,0" transform="translate(-232.566 -96.107)" fill="#fff"/>
    <path id="Path_27" data-name="Path 27" d="M355.682,199.586l-.114-1.977-1.069.061.109,1.874-1.409.082-.108-1.874-1.1.063.114,1.977-1.408.081-.21-3.639,6.4-.369.21,3.639-1.409.081Zm0,0" transform="translate(-236.919 -120.657)" fill="#fff"/>
    <path id="Path_28" data-name="Path 28" d="M351.979,221.141l-2.819,1.732.213-2.062,2.613-1.309,0-.016-2.451-.254.171-1.656,6.373.658-.256,2.477a2.621,2.621,0,0,1-.645,1.53,1.731,1.731,0,0,1-1.553.481,2,2,0,0,1-1.137-.485,1.526,1.526,0,0,1-.518-1.1Zm2.663-1.382-1.589-.165-.016.161a.425.425,0,0,0-.018.085c0,.028-.006.054-.008.076a1.665,1.665,0,0,0,.1.694.64.64,0,0,0,.593.377.621.621,0,0,0,.649-.249,1.592,1.592,0,0,0,.247-.657c0-.022,0-.048.008-.076s.006-.057.009-.085Zm0,0" transform="translate(-235.925 -136.961)" fill="#fff"/>
    <path id="Path_29" data-name="Path 29" d="M349.8,248.664a3.719,3.719,0,0,1-1.634,2.068,2.97,2.97,0,0,1-2.586.314,3.405,3.405,0,0,1-2.12-1.722,3.764,3.764,0,0,1,1.531-4.844,3.405,3.405,0,0,1,2.724-.19,2.967,2.967,0,0,1,1.936,1.743,3.677,3.677,0,0,1,.14,2.628Zm-1.54-.486a1.811,1.811,0,0,0-.116-1.382,1.586,1.586,0,0,0-.959-.856,1.888,1.888,0,0,0-1.463.09,1.735,1.735,0,0,0-.9,1.059,1.706,1.706,0,0,0,.134,1.379,1.869,1.869,0,0,0,1.143.922,1.578,1.578,0,0,0,1.279-.157,1.746,1.746,0,0,0,.878-1.059Zm0,0" transform="translate(-231.368 -156.876)" fill="#fff"/>
    <path id="Path_30" data-name="Path 30" d="M335.473,277.534l.939-1.742-.943-.508-.89,1.653-1.242-.669.891-1.653-.973-.524-.939,1.743-1.242-.669,1.73-3.209,5.64,3.04-1.729,3.208Zm0,0" transform="translate(-222.343 -177.798)" fill="#fff"/>
    <path id="Path_31" data-name="Path 31" d="M324.525,296.883l-.629-1.307a1.876,1.876,0,0,0,.55-.234,1.478,1.478,0,0,0,.448-.4.467.467,0,0,0,.05-.08.334.334,0,0,0,.049-.091.871.871,0,0,0,.08-.387.438.438,0,0,0-.53-.412,1.524,1.524,0,0,0-.356.147c-.041.025-.08.05-.118.071s-.071.055-.1.081l-.351.266a3.009,3.009,0,0,1-1.151.535,1.429,1.429,0,0,1-1.205-.337c-.018-.014-.036-.028-.055-.041s-.036-.028-.054-.041a3.054,3.054,0,0,1-.594-.652,1.658,1.658,0,0,1-.272-.836,2.118,2.118,0,0,1,.109-.834,3.5,3.5,0,0,1,.367-.766c.027-.037.054-.073.083-.109a.953.953,0,0,1,.064-.1,3.831,3.831,0,0,1,.863-.829,4.288,4.288,0,0,1,1.073-.53l.646,1.384a3.505,3.505,0,0,0-.79.255,1.7,1.7,0,0,0-.638.519l-.02.026-.02.027a1.008,1.008,0,0,0-.172.509.545.545,0,0,0,.241.471.453.453,0,0,0,.422.075,1.551,1.551,0,0,0,.44-.2c.059-.041.116-.083.17-.127s.113-.079.16-.114a.077.077,0,0,0,.032-.028l.034-.016a3.733,3.733,0,0,1,1.163-.633,1.454,1.454,0,0,1,1.261.39,2.049,2.049,0,0,1,.872,1.438,2.238,2.238,0,0,1-.491,1.62,3.231,3.231,0,0,1-.261.3,2.626,2.626,0,0,1-.3.284,4.754,4.754,0,0,1-.521.394,3.63,3.63,0,0,1-.547.3Zm0,0" transform="translate(-214.234 -191.351)" fill="#fff"/>
    <path id="Path_32" data-name="Path 32" d="M118.081,330.544l-2.268-.148-1.409,1.785-.56-2.2-2.132-.788,1.922-1.213.09-2.272,1.748,1.453,2.188-.616-.841,2.111Zm0,0" transform="translate(-57.608 -218.163)" fill="#fff"/>
    <path id="Path_33" data-name="Path 33" d="M138.917,142.029a3.649,3.649,0,0,0-1.771.163,3.731,3.731,0,0,0-2.29,1.615,2.252,2.252,0,0,0-.308.727,8.629,8.629,0,0,0-.13,1.2,11.76,11.76,0,0,1-.24,1.709,1.5,1.5,0,0,0-.032,1.087,11.344,11.344,0,0,0,1.083,1.766.437.437,0,0,1,.109.314,1.516,1.516,0,0,1-.2.544,2.652,2.652,0,0,0-.293,1.416,3.289,3.289,0,0,1-.042.622.752.752,0,0,1-.136.314,4.877,4.877,0,0,1-1.945,1.249c-2.59,1.033-3.9,1.925-4.562,3.2a3.934,3.934,0,0,0-.241.71c-.089.323-.189.713-.276,1.108s-.176.76-.251,1.046c-.038.143-.073.266-.1.356s-.061.169-.037.126a.763.763,0,0,0-.084.423,1.284,1.284,0,0,0,.136.412,3.651,3.651,0,0,1,.126,1.233,3.836,3.836,0,0,1-.33,1.876c-.2.534-.457,1.306-.586,1.746a5.507,5.507,0,0,1-.6,1.453,1.2,1.2,0,0,1-.648.544,1.806,1.806,0,0,0-.408.208c-.161.1-.346.216-.522.34a23.942,23.942,0,0,1-3.805,1.855,2.855,2.855,0,0,1-.538.147.526.526,0,0,1-.277-.073v-.006a3.52,3.52,0,0,0-1.271-.178,3.422,3.422,0,0,0-1.265.178,4.125,4.125,0,0,1-1.129.13c-.253,0-.5.009-.695.027-.1.008-.191.024-.268.037a.442.442,0,0,0-.245.078.5.5,0,0,0-.24.319.483.483,0,0,0,.13.418c.081.079.19.064.282.093a5.341,5.341,0,0,1-.628.057,1.452,1.452,0,0,0-.752.262,1.639,1.639,0,0,0-.308.235.516.516,0,0,0-.193.408s.036.157.037.157l.073.089.052.042.042.021a.447.447,0,0,0,.084.026.761.761,0,0,0,.094.011c.064.006.146.013.246.016.2,0,.471,0,.8,0,.667,0,1.562-.014,2.467-.031s1.822-.046,2.546-.073c.362-.014.675-.027.914-.042A3.023,3.023,0,0,0,121,173.7c.253-.061.7-.2,1.035-.318a3.765,3.765,0,0,1,.575-.167c.077-.014.058-.011.068-.011a2.308,2.308,0,0,1-.073.439,2.5,2.5,0,0,0,.088,1.489,8.489,8.489,0,0,0,1.453,2.838c.223.284.669.889.977,1.322a20.226,20.226,0,0,0,2.457,2.666c.465.434.915.821,1.291,1.108a5.056,5.056,0,0,0,.507.35.815.815,0,0,0,.466.162.565.565,0,0,1-.059,0c-.006,0-.008,0-.01,0l.068.026c.062.027.156.065.266.116.221.1.516.243.831.4a12.659,12.659,0,0,0,1.981.784l.418.11v-.089a18.045,18.045,0,0,0,3.9.193,46.014,46.014,0,0,0,5.42-.172,9.331,9.331,0,0,0,3.032-.91,10.3,10.3,0,0,0,3.256-2.775,30.033,30.033,0,0,1,3.524-3.387,4.992,4.992,0,0,0,.935-.941,1.575,1.575,0,0,0,.309-.685,9.675,9.675,0,0,0,.042-1.322c0-.576-.013-.946-.042-1.228a1.712,1.712,0,0,0-.184-.663,4.044,4.044,0,0,1,.471.135c1.074.372,2.669.462,5.567.382l3.287-.09-.6-.81a.956.956,0,0,0-.491-.382,3.482,3.482,0,0,0-.877-.052c-.112,0-.108-.013-.2-.016a.523.523,0,0,0,.189-.115.451.451,0,0,0,.13-.3.544.544,0,0,0-.161-.377.7.7,0,0,0-.345-.156,5.425,5.425,0,0,0-1.055-.062,4.861,4.861,0,0,1-1.239-.136,4.538,4.538,0,0,0-1.84-.11,10.345,10.345,0,0,1-1.035.031c-.184-.013-.205-.026-.277-.073a4.908,4.908,0,0,0-.879-.412,12.07,12.07,0,0,1-1.416-.732,7.6,7.6,0,0,0-1.421-.716,2.215,2.215,0,0,1-.486-.251,5.619,5.619,0,0,1-.638-1.082,12.324,12.324,0,0,1-.637-1.615,9.762,9.762,0,0,1-.7-4.328,8.717,8.717,0,0,0-.344-2.06,9.119,9.119,0,0,0-.7-1.991,9.323,9.323,0,0,0-4.563-3.21,5.17,5.17,0,0,1-1.987-1.291,1.014,1.014,0,0,1-.225-.392.511.511,0,0,1,.068-.324.841.841,0,0,0,.073-.476,1.727,1.727,0,0,0-.192-.507,1.639,1.639,0,0,1,.1-1.584,2.834,2.834,0,0,0,.758-1.882,2.59,2.59,0,0,0-.053-.512.967.967,0,0,0-.167-.434c.022.029-.03-.058-.053-.163a1.776,1.776,0,0,1-.036-.355,9.973,9.973,0,0,0-.121-1.417,4.427,4.427,0,0,0-.287-1.129,2.968,2.968,0,0,0-.35-.522,7.448,7.448,0,0,0-.513-.585,2.85,2.85,0,0,0-1.385-.894Zm-.146.648a2.2,2.2,0,0,1,1.051.717,6.823,6.823,0,0,1,.47.533,3.032,3.032,0,0,1,.267.386,4.577,4.577,0,0,1,.231.947,9.461,9.461,0,0,1,.115,1.317,2.478,2.478,0,0,0,.053.5.962.962,0,0,0,.172.423c-.02-.026.025.061.047.167a2,2,0,0,1,.037.377,2.1,2.1,0,0,1-.6,1.453,2.165,2.165,0,0,0-.183,2.321,1.5,1.5,0,0,1,.13.3c.007.038.01.028-.02.094a1.2,1.2,0,0,0-.121.722,1.593,1.593,0,0,0,.356.69,5.489,5.489,0,0,0,2.278,1.5,9.323,9.323,0,0,1,4.219,2.916,9.689,9.689,0,0,1,.626,1.824,9.307,9.307,0,0,1,.324,1.872,10.663,10.663,0,0,0,.727,4.542,12.832,12.832,0,0,0,.675,1.709,5.3,5.3,0,0,0,.747,1.25,1.7,1.7,0,0,0,.784.439,9.5,9.5,0,0,1,1.27.643v0a11.051,11.051,0,0,0,1.526.784,6.093,6.093,0,0,1,.747.345,1.242,1.242,0,0,0,.6.178,10.638,10.638,0,0,0,1.119-.027,3.9,3.9,0,0,1,1.573.068,4.733,4.733,0,0,0,1.464.178c.1,0,.1.008.188.011-.079.083-.175.157-.194.251a.546.546,0,0,0,.4.674,2.931,2.931,0,0,0,.685.062l-.973.026a17.078,17.078,0,0,1-5.331-.344,4.683,4.683,0,0,0-.632-.183.85.85,0,0,0-.513.016.506.506,0,0,0-.246.214.527.527,0,0,0-.058.293,1.163,1.163,0,0,0,.167.476.972.972,0,0,1,.11.418c.024.231.036.586.037,1.156a10.122,10.122,0,0,1-.037,1.218.761.761,0,0,1-.194.412,5.153,5.153,0,0,1-.794.789,28.679,28.679,0,0,0-3.644,3.5,10.106,10.106,0,0,1-3.011,2.582,8.505,8.505,0,0,1-2.833.852,46.059,46.059,0,0,1-5.336.167c-3.071-.011-3.5-.024-4.156-.194a13.043,13.043,0,0,1-1.855-.737c-.319-.156-.618-.3-.847-.4-.114-.052-.212-.093-.287-.126-.038-.015-.069-.03-.1-.041a.493.493,0,0,0-.053-.016c-.01,0-.017,0-.031-.006l-.073-.011c.077,0-.018-.008-.131-.073a4.56,4.56,0,0,1-.439-.3c-.348-.265-.785-.643-1.239-1.066a20.222,20.222,0,0,1-2.368-2.566c-.314-.445-.758-1.039-1-1.344a8,8,0,0,1-1.333-2.6c-.189-.688-.193-.7-.084-1.154a2.536,2.536,0,0,0,.094-.623.66.66,0,0,0-.262-.549.783.783,0,0,0-.59-.078,4.164,4.164,0,0,0-.685.2c-.312.111-.768.254-.967.3h-.006c.03-.008-.161.016-.392.032s-.54.033-.9.047c-.718.028-1.633.05-2.535.068-.658.014-1.228.016-1.788.021.078-.011.182-.008.251-.021a2.184,2.184,0,0,0,.4-.1.449.449,0,0,0,.344-.3.526.526,0,0,0,0-.381.456.456,0,0,0-.136-.152,3.823,3.823,0,0,0,1.354-.178,3.539,3.539,0,0,1,1.009-.126,3.482,3.482,0,0,1,1.014.131,1.252,1.252,0,0,0,.57.126,2.89,2.89,0,0,0,.711-.184,21.718,21.718,0,0,0,3.978-1.939c.162-.115.336-.227.48-.313s.291-.155.267-.147a1.9,1.9,0,0,0,1-.81,6.049,6.049,0,0,0,.69-1.636c.12-.409.38-1.189.57-1.7a4.737,4.737,0,0,0,.371-2.107,3.613,3.613,0,0,0-.194-1.52.7.7,0,0,1-.067-.2c0-.028-.005-.019,0-.037a1.036,1.036,0,0,0,.089-.246c.031-.1.066-.228.105-.377.077-.3.168-.678.256-1.071s.181-.768.266-1.077.183-.576.189-.585c.55-1.068,1.677-1.873,4.218-2.885a4.941,4.941,0,0,0,2.253-1.5,1.538,1.538,0,0,0,.24-.549,3.747,3.747,0,0,0,.053-.758,1.788,1.788,0,0,1,.214-1.1,2.019,2.019,0,0,0,.282-.815,1.188,1.188,0,0,0-.225-.731,12.35,12.35,0,0,1-1.014-1.636c-.1-.255-.072-.287.042-.632a9.589,9.589,0,0,0,.271-1.871,8.475,8.475,0,0,1,.121-1.108,1.407,1.407,0,0,1,.225-.518,3.035,3.035,0,0,1,1.892-1.323,3.135,3.135,0,0,1,1.452-.157Zm6.272,21a.57.57,0,0,0-.6.439,5.363,5.363,0,0,0-.146,1.139,7.4,7.4,0,0,1-.325,1.736,10.159,10.159,0,0,0-.48,2.77,4.91,4.91,0,0,0,.313,2.295c.161.314.184.472.184,1.306a6.032,6.032,0,0,0,.093,1.26,1.236,1.236,0,0,0,.423.742.856.856,0,0,0,.565.183,1.055,1.055,0,0,0,.23-.084l.016.059.372-.194a2.987,2.987,0,0,0,.648-.528c.26-.249.558-.559.841-.878a10.689,10.689,0,0,1,.91-.956,1.759,1.759,0,0,1,.6-.33,3.125,3.125,0,0,0,.518-.245,1.055,1.055,0,0,0,.189-.141.379.379,0,0,0,.151-.319.384.384,0,0,0-.109-.282,1.035,1.035,0,0,0-.147-.152,2.077,2.077,0,0,0-.387-.25,4.565,4.565,0,0,1-.6-.387,2.364,2.364,0,0,1-.193-.277c-.1-.16-.213-.375-.34-.622-.253-.5-.549-1.125-.815-1.767a15.72,15.72,0,0,1-.554-1.793,10.956,10.956,0,0,1-.3-1.522,1.141,1.141,0,0,0-.344-.758,1.665,1.665,0,0,0-.3-.288.661.661,0,0,0-.417-.157Zm.031.71a1.052,1.052,0,0,1,.167.162,2.576,2.576,0,0,1,.194.329,8.307,8.307,0,0,0,.318,1.684,15.822,15.822,0,0,0,.586,1.886c.273.66.573,1.3.837,1.819.131.258.257.479.366.659a1.838,1.838,0,0,0,.308.418,3.657,3.657,0,0,0,.747.491.952.952,0,0,1,.094.063,2.424,2.424,0,0,1-.235.109,2.566,2.566,0,0,0-.794.445,10.447,10.447,0,0,0-.983,1.025c-.27.3-.56.6-.8.836s-.485.417-.486.418a1.414,1.414,0,0,1-.371.151c-.036,0-.021.012-.105-.052s-.122-.128-.172-.356a5.587,5.587,0,0,1-.079-1.113,3.192,3.192,0,0,0-.256-1.61,4.8,4.8,0,0,1-.246-1.965,9.607,9.607,0,0,1,.45-2.583,7.953,7.953,0,0,0,.36-1.9,6.866,6.866,0,0,1,.1-.92ZM130.92,165.5a1.3,1.3,0,0,0-.648.711,10.458,10.458,0,0,0-.565,1.516,8.888,8.888,0,0,1-1.756,3.381,3.652,3.652,0,0,1-.293.24,1.017,1.017,0,0,1-.089.058c-.016.008-.056-.016.094-.016a.412.412,0,0,0-.372.246.626.626,0,0,0,.126.736,1.71,1.71,0,0,0,.377.3,3.642,3.642,0,0,1,.617.528,6.409,6.409,0,0,0,1.709,1.489,1.643,1.643,0,0,0,.769.236.773.773,0,0,0,.674-.377l.047-.089,0-.042c.011-.04.031-.084.042-.132.02-.093.039-.2.057-.329.037-.253.07-.566.094-.883a3.356,3.356,0,0,1,.329-1.557,2.642,2.642,0,0,0,.24-.591,1.2,1.2,0,0,0,0-.533c-.025-.115-.112-.788-.161-1.374-.058-.671-.165-1.44-.277-2.064-.055-.312-.113-.589-.167-.806-.027-.108-.05-.2-.079-.276a.472.472,0,0,0-.141-.251.532.532,0,0,0-.622-.126Zm.167.727c.01.033.016.054.026.094.049.191.1.455.157.758.108.6.211,1.357.266,2,.052.6.122,1.2.178,1.463a.44.44,0,0,1,0,.236,2.223,2.223,0,0,1-.183.439,4.221,4.221,0,0,0-.4,1.814c-.022.3-.054.6-.088.831-.017.117-.032.216-.048.288s-.046.129-.02.084c-.02.036.009.026-.073.026a1.157,1.157,0,0,1-.46-.157,5.911,5.911,0,0,1-1.516-1.333,3.688,3.688,0,0,0-.774-.659,1.094,1.094,0,0,1-.2-.157c.033-.022.064-.043.1-.068a4.09,4.09,0,0,0,.35-.283,8.864,8.864,0,0,0,1.95-3.679,10.142,10.142,0,0,1,.523-1.417.643.643,0,0,1,.214-.283Zm0,0" transform="translate(-58.675 -80.188)" fill="#fff"/>
    <path id="Path_34" data-name="Path 34" d="M288,330.544l2.268-.148,1.408,1.785.56-2.2,2.132-.788-1.922-1.213-.089-2.272-1.749,1.453-2.188-.616.841,2.111Zm0,0" transform="translate(-189.995 -218.163)" fill="#fff"/>
    <path id="Path_35" data-name="Path 35" d="M170.53,353.856l-2.268-.148-1.408,1.785-.56-2.2-2.133-.787,1.922-1.214.09-2.271,1.748,1.453,2.189-.617-.842,2.112Zm0,0" transform="translate(-96.995 -235.669)" fill="#fff"/>
    <path id="Path_36" data-name="Path 36" d="M232.4,353.856l2.269-.148,1.408,1.785.56-2.2,2.132-.787-1.922-1.214-.09-2.271-1.748,1.453-2.189-.617.842,2.112Zm0,0" transform="translate(-148.243 -235.669)" fill="#fff"/>
  </g>
</svg>
