<svg xmlns="http://www.w3.org/2000/svg" width="2093.437" height="725.391" viewBox="0 0 2093.437 725.391">
  <path id="Path_10" data-name="Path 10" d="M3.088,343.906c98.26-73.317,260.977-183.232,449.958-212.791,176.971-27.68,297.292-19.256,585.511,82.175,265.457,93.42,486.67,372.817,679.644,185.976,113.053-109.46,291.652-61.356,374.651-92.555m-3.558-7.468c-82.1,30.477-257.713-16.038-370.2,91.057-193.855,184.567-414.212-86.31-675.6-171.945-284.013-92.5-410.755-99.835-584.868-72.787C267.478,174.6,101.655,277.063,3.019,347.008m2082.716-55.233c-81.2,29.754-253.843-15.178-365.744,89.559-194.758,182.292-414.236-80.066-671.562-157.915-279.808-83.572-412.868-89.253-584.225-63.4C271,189.169,101.962,283.536,2.951,350.109m2079.226-65.8c-80.3,29.033-249.99-14.326-361.288,88.061-195.682,180.015-414.042-74.5-667.523-143.886C778,153.1,638.327,149.5,469.783,174.471,274.467,203.408,102.269,290.009,2.881,353.21m2075.737-76.374c-79.4,28.312-246.154-13.482-356.835,86.564-196.629,177.734-414.021-68.484-663.48-129.856-271.111-66.7-417.216-68.728-582.939-44.622C277.928,217.642,102.576,296.482,2.813,356.312M2075.06,269.368c-78.5,27.59-242.336-12.645-352.382,85.066-197.6,175.45-414.016-62.47-659.439-115.827-266.876-58.02-419.4-58.493-582.3-35.232-199.557,28.494-378.059,99.579-478.2,156.038M2071.5,261.9c-77.6,26.868-238.533-11.819-347.927,83.568-198.59,173.163-414.028-56.454-655.4-101.8-262.659-49.341-421.581-48.278-581.654-25.845C284.839,246.091,103.19,309.428,2.675,362.514M2067.941,254.431c-76.694,26.146-234.747-11-343.473,82.07-199.605,170.868-414.058-50.436-651.358-87.766-258.462-40.66-423.768-38.079-581.01-16.457C288.29,260.306,103.5,315.9,2.606,365.616M2064.383,246.963c-75.795,25.424-230.98-10.193-339.019,80.572C1524.718,496.1,1311.256,283.122,1078.047,253.8c-254.288-31.973-425.96-27.9-580.367-7.067C291.737,274.512,103.8,322.374,2.537,368.717M2060.825,239.494c-74.895,24.7-227.23-9.4-334.565,79.074-201.711,166.258-414.177-38.384-643.277-59.707-250.134-23.281-428.156-17.732-579.725,2.321C295.182,288.711,104.11,328.847,2.468,371.818m2054.8-139.792c-73.993,23.98-223.5-8.609-330.11,77.575-202.8,163.941-414.266-32.344-639.235-45.676-246-14.579-430.355-7.583-579.082,11.709C298.623,302.9,104.418,335.32,2.4,374.92M2053.707,224.557c-73.093,23.259-219.781-7.832-325.656,76.079-203.917,161.611-414.376-26.294-635.2-31.647-241.9-5.864-432.557,2.55-578.439,21.1-212.356,27-409.693,51.707-512.087,87.935m-.069,3.1C105.031,348.266,305.5,331.258,520,304.538c143.034-17.818,339.984-27.62,577.8-30.486,216.649-2.611,426.1,176.887,631.154,17.617,105.12-81.648,249.01-52.043,321.2-74.581M2.193,384.224c103.146-29.485,306.736-38.8,523.383-65.234,140.184-17.1,343.406-28.261,577.153-39.874,212.46-10.556,420.887,160.5,627.113,3.586,104.347-79.4,245.456-51.267,316.748-73.082M2.124,387.325c103.521-26.114,310.234-27.751,529.031-53.884,137.33-16.4,346.808-28.878,576.51-49.263,208.255-18.482,415.651,144.1,623.072-10.443,103.557-77.159,241.9-50.491,312.293-71.584M2.054,390.426c103.9-22.742,313.73-16.711,534.679-42.532,134.474-15.716,350.194-29.472,575.867-58.652,204.035-26.383,410.388,127.687,619.033-24.474,102.751-74.934,238.349-49.714,307.839-70.086M1.986,393.528c104.274-19.37,317.222-5.683,540.327-31.183,131.616-15.042,353.566-30.035,575.225-68.039,199.8-34.258,405.1,111.251,614.991-38.5,101.928-72.723,234.8-48.939,303.385-68.589M1.917,396.629c104.648-16,320.712,5.332,545.975-19.832,128.756-14.382,356.928-30.569,574.582-77.428,195.563-42.1,399.777,94.8,610.95-52.533,101.089-70.525,231.242-48.162,298.931-67.09M1.848,399.731c105.024-12.627,324.2,16.332,551.623-8.481,125.892-13.736,360.285-31.07,573.94-86.817,191.318-49.919,394.427,78.316,606.908-66.563,100.233-68.344,227.689-47.387,294.477-65.593M1.78,402.832c105.4-9.256,327.684,27.319,557.271,2.869,123.028-13.1,363.643-31.537,573.3-96.2,187.074-57.7,389.052,61.811,602.868-80.593,99.362-66.176,224.136-46.61,290.023-64.1M1.711,405.934c105.775-5.885,331.165,38.288,562.919,14.219,120.161-12.479,367.006-31.969,572.653-105.594,182.835-65.457,383.645,45.28,598.827-94.623,98.475-64.024,220.583-45.834,285.57-62.6M1.641,409.034c106.152-2.512,334.645,49.243,568.567,25.571,117.293-11.87,370.38-32.368,572.011-114.982,178.606-73.181,378.209,28.718,594.786-108.653,97.571-61.888,217.029-45.057,281.114-61.1M1.572,412.136c106.528.86,338.121,60.177,574.215,36.921,114.423-11.271,373.77-32.733,571.368-124.371C1321.547,243.812,1519.9,336.81,1737.9,202c96.654-59.768,213.475-44.281,276.66-59.6M1.5,415.237c106.9,4.232,341.594,71.091,579.863,48.272,111.551-10.685,377.182-33.07,570.724-133.76,170.2-88.544,367.25-4.507,586.705-136.713,95.724-57.667,209.922-43.505,272.207-58.1M1.435,418.339c107.278,7.6,345.064,81.983,585.511,59.622,108.678-10.108,380.62-33.379,570.082-143.148,166.022-96.188,361.724-21.176,582.663-150.742,94.781-55.583,206.369-42.729,267.753-56.606M1.366,421.44c107.655,10.974,348.533,92.854,591.159,70.973,105.8-9.542,384.087-33.664,569.439-152.537,161.875-103.813,356.17-37.886,578.622-164.772,93.823-53.517,202.815-41.954,263.3-55.107M1.3,424.542c108.03,14.346,352,103.7,596.807,82.323,102.929-8.987,387.584-33.932,568.8-161.925,157.754-111.424,350.586-54.642,574.581-178.8,92.854-51.469,199.262-41.178,258.845-53.609M1.228,427.643C109.635,445.36,356.69,542.156,603.683,521.317,703.736,512.875,994.8,487.132,1171.836,350c153.662-119.023,344.975-71.447,570.542-192.833,91.872-49.44,195.708-40.4,254.39-52.111M1.159,430.745c108.783,21.089,358.924,125.3,608.1,105.024,97.178-7.907,394.682-34.427,567.51-180.7,149.6-126.612,339.334-88.3,566.5-206.862,90.882-47.432,192.155-39.625,249.936-50.613M1.09,433.846C110.249,458.307,363.472,569.9,614.841,550.22c94.3-7.381,398.281-34.664,566.867-190.09,145.563-134.2,333.663-105.216,562.459-220.893,89.881-45.442,188.6-38.848,245.482-49.115M1.022,436.947c109.534,27.832,365.837,146.769,619.4,127.726,91.422-6.867,401.914-34.9,566.225-199.478C1328.2,223.408,1514.611,243,1745.063,130.271,1833.936,86.8,1930.111,92.2,1986.091,82.655M.953,440.048C110.862,471.253,370.244,597.494,626,579.124c88.544-6.36,405.575-35.137,565.582-208.867,137.576-149.375,322.243-139.228,554.378-248.952,87.855-41.527,181.494-37.3,236.574-46.12M.884,443.149c110.285,34.576,372.742,168.08,630.695,150.427,85.665-5.863,409.267-35.38,564.939-218.255,133.62-156.97,316.493-156.336,550.337-262.982,86.833-39.6,177.941-36.52,232.119-44.621M.815,446.251C111.476,484.2,377.006,624.914,637.157,608.028c82.789-5.374,412.985-35.631,564.3-227.644,129.686-164.571,310.72-173.519,546.3-277.012,85.8-37.7,174.387-35.744,227.665-43.124M.746,449.352c111.037,41.32,379.639,189.194,641.991,173.128,79.91-4.894,416.727-35.891,563.654-237.033,125.773-172.182,304.924-190.779,542.255-291.042,84.773-35.814,170.833-34.968,223.211-41.626M.677,452.454C112.09,497.145,383.76,652.12,648.316,636.932c77.033-4.422,420.49-36.161,563.01-246.421,121.878-179.8,299.108-208.124,538.215-305.072,83.739-33.953,167.28-34.192,218.757-40.128M.609,455.555C112.4,503.618,387.136,665.626,653.9,651.384c74.157-3.959,424.27-36.446,562.367-255.809,118-187.437,293.273-225.558,534.174-319.1,82.706-32.115,163.726-33.415,214.3-38.629M.539,458.656C112.7,510.09,390.51,679.057,659.474,665.836c71.282-3.5,428.068-36.742,561.725-265.2,114.132-195.081,287.422-243.085,530.133-333.132,81.673-30.3,160.174-32.639,209.849-37.131M.471,461.758C113.011,516.564,393.883,692.4,665.054,680.287c68.407-3.056,431.878-37.051,561.082-274.586,110.276-202.737,281.557-260.714,526.091-347.161,80.643-28.51,156.62-31.864,205.4-35.635M.4,464.859c112.916,58.178,396.857,240.8,670.231,229.88,65.536-2.616,435.7-37.374,560.439-283.975C1337.5,200.359,1506.756,132.318,1753.123,49.573c79.617-26.741,153.066-31.087,200.94-34.137M.333,467.961c113.292,61.548,400.3,250.835,675.879,241.231,62.667-2.184,439.806-37.6,559.8-293.363,102.828-217.993,269.8-296.291,518.01-375.221,78.6-25,149.513-30.311,196.486-32.638M.264,471.062C113.931,535.983,404.01,731.816,681.791,723.643c59.8-1.759,443.369-38.06,559.153-302.751,98.762-225.778,263.922-314.251,513.969-389.252C1832.5,8.367,1900.873,2.1,1946.946.5" transform="translate(0.232 0.499)" fill="none" stroke="#595959" stroke-width="2" stroke-dasharray="2 8" opacity="0.23"/>
</svg>
